<?xml version="1.0" encoding="UTF-8" standalone="no"?><!DOCTYPE svg PUBLIC "-//W3C//DTD SVG 1.1//EN" "http://www.w3.org/Graphics/SVG/1.1/DTD/svg11.dtd"><svg width="100%" height="100%" viewBox="0 0 61 33" version="1.1" xmlns="http://www.w3.org/2000/svg" xmlns:xlink="http://www.w3.org/1999/xlink" xml:space="preserve" style="fill-rule:evenodd;clip-rule:evenodd;stroke-linejoin:round;stroke-miterlimit:1.41421;"><g><g><path d="M38.7,15.192l0.792,-0.882c0.072,-0.072 0.108,-0.144 0.162,-0.216c-0.288,-0.144 -0.306,-0.144 -0.486,-0.072c-0.288,0.108 -0.522,0.288 -0.666,0.54c-0.108,0.198 -0.216,0.414 -0.306,0.612c-0.036,0.072 -0.018,0.126 -0.018,0.198c0.306,0.036 0.324,0.018 0.522,-0.18Z" style="fill-rule:nonzero;"/><path d="M52.002,18.666c-0.252,0.198 -1.35,0.81 -1.548,0.9c-0.198,0.108 -0.45,0.198 -0.684,0.126c-0.198,-0.504 0.054,-0.99 0.216,-1.476c1.044,-0.234 1.8,-0.81 2.16,-1.656c0.09,-0.198 0.18,-0.432 0,-0.594c-0.198,-0.18 -0.45,-0.18 -0.684,-0.108c-0.144,0.054 -0.27,0.09 -0.396,0.162c-0.216,0.144 -0.432,0.27 -0.612,0.432c-0.288,0.162 -0.576,0.324 -0.846,0.486c-0.414,0.234 -0.828,0.396 -1.296,0.45c-0.378,0.036 -0.774,0.036 -1.17,0.036c-0.234,0 -0.45,-0.018 -0.666,0.144c0.09,0.09 0.144,0.162 0.216,0.216c0.252,0.162 0.288,0.378 0.252,0.63c0,0.09 -0.018,0.162 -0.036,0.252c-0.306,0.81 -0.738,1.494 -1.44,2.07c-0.072,0.072 -0.162,0.108 -0.27,0.162c-0.216,-0.252 -0.234,-0.504 -0.198,-0.792c0.126,-0.63 0.324,-1.278 0.558,-1.89c0.072,-0.18 0.18,-0.306 0.324,-0.396c0.432,-0.288 0.846,-0.576 1.224,-0.918c1.134,-1.062 2.214,-2.196 3.132,-3.42c0.18,-0.216 0.306,-0.486 0.378,-0.756c0.108,-0.396 -0.054,-0.576 -0.486,-0.576c-0.342,0 -0.63,0.144 -0.918,0.324c-0.792,0.54 -1.476,1.17 -2.124,1.872c-0.702,0.792 -1.35,1.602 -1.89,2.484c-0.216,0.162 -0.414,0.342 -0.612,0.504c-0.828,0.666 -1.62,1.332 -2.448,1.98c-0.324,0.234 -0.702,0.432 -1.062,0.63c-0.144,0.072 -0.306,0.18 -0.54,0.108c-0.198,-0.504 0.054,-0.99 0.216,-1.476c1.044,-0.234 1.8,-0.81 2.16,-1.656c0.09,-0.198 0.18,-0.432 0,-0.594c-0.198,-0.18 -0.45,-0.18 -0.684,-0.108c-0.072,0.018 -0.126,0.054 -0.198,0.072c-0.018,0 -0.036,0 -0.072,0c-0.144,0.054 -0.252,0.126 -0.36,0.216l-0.018,0.018c-0.144,0.09 -0.27,0.18 -0.396,0.288c-0.162,0.144 -0.306,0.288 -0.45,0.45c-0.45,0.378 -0.9,0.72 -1.386,1.044c-0.504,0.342 -1.044,0.63 -1.566,0.954c-0.162,0.108 -0.378,0.18 -0.612,0.198c0,-0.108 -0.018,-0.216 -0.018,-0.288c0.072,-0.252 0.144,-0.486 0.252,-0.72c0.234,-0.522 0.522,-1.062 0.756,-1.566c0.072,-0.108 0.18,-0.198 0.108,-0.324c-0.378,-0.09 -0.45,-0.072 -0.666,0.18c-0.036,0.054 -0.072,0.09 -0.108,0.144c-0.072,0.036 -0.126,0.09 -0.18,0.144c-0.72,0.666 -1.422,1.368 -2.16,2.016c-0.504,0.45 -1.044,0.936 -1.584,1.35c-0.198,0.162 -0.45,0.288 -0.702,0.414c-0.18,0.072 -0.288,0.036 -0.342,-0.126c-0.072,-0.216 -0.126,-0.468 -0.108,-0.684c0.018,-0.414 0.144,-0.846 0.306,-1.278c0.414,-0.072 0.702,-0.27 0.99,-0.504c1.206,-0.972 2.25,-2.07 3.096,-3.33c0.27,-0.396 0.45,-0.828 0.576,-1.278c0.036,-0.108 0.036,-0.252 0.036,-0.36c0,-0.324 -0.18,-0.486 -0.522,-0.486c-0.288,0 -0.504,0.09 -0.72,0.234c-0.216,0.162 -0.432,0.306 -0.63,0.468c-0.396,0.396 -0.792,0.774 -1.152,1.152c-0.738,0.81 -1.44,1.638 -1.998,2.556c-0.432,0.72 -0.792,1.44 -0.99,2.232c-0.072,0.342 -0.108,0.72 -0.036,1.08c0.09,0.468 0.324,0.684 0.81,0.756c0.126,0.036 0.27,0.018 0.378,0.018c0.684,0 1.224,-0.288 1.728,-0.648c0.504,-0.378 0.954,-0.81 1.368,-1.278c0.306,-0.342 0.612,-0.702 0.918,-1.044c-0.036,0.09 -0.072,0.18 -0.108,0.27c-0.072,0.216 -0.162,0.414 -0.198,0.63c-0.072,0.414 0.09,0.63 0.54,0.648c0.252,0.018 0.504,0 0.738,-0.054c0.702,-0.162 1.35,-0.432 1.926,-0.864c0.054,-0.036 0.126,-0.09 0.18,-0.144c-0.108,0.252 -0.198,0.504 -0.198,0.774c-0.072,0.522 0.198,0.828 0.756,0.9c0.324,0.036 0.666,0 0.972,-0.108c0.702,-0.198 1.296,-0.594 1.8,-1.062c0.558,-0.522 1.116,-1.062 1.674,-1.602c-0.108,0.198 -0.198,0.396 -0.306,0.612c-0.27,0.594 -0.504,1.188 -0.594,1.836c-0.108,0.72 0.324,1.188 1.098,1.242c0.54,0.036 1.026,-0.108 1.422,-0.45c0.45,-0.414 0.792,-0.918 1.062,-1.458c0.216,-0.522 0.414,-1.044 0.144,-1.62c0.45,-0.072 0.864,-0.126 1.278,-0.216c0.324,-0.054 0.612,-0.216 0.882,-0.378c-0.252,0.306 -0.468,0.63 -0.648,0.972c-0.162,0.306 -0.306,0.666 -0.324,1.008c-0.072,0.522 0.198,0.828 0.756,0.9c0.324,0.036 0.666,0 0.972,-0.108c0.702,-0.198 1.098,-0.558 2.016,-1.44c0.036,-0.054 0.054,-0.09 0.072,-0.18c-0.306,0.126 -0.306,0.126 -0.486,0.27Zm-4.86,-3.258c0.684,-0.9 1.368,-1.8 2.25,-2.538l0.45,-0.378c0.126,-0.09 0.216,-0.162 0.378,-0.144c0.162,0.09 0.162,0.216 0.126,0.36c-0.054,0.162 -0.108,0.306 -0.216,0.45c-0.108,0.198 -0.252,0.396 -0.396,0.576c-1.062,1.26 -2.196,2.448 -3.492,3.492l-0.198,0.162c0.288,-0.72 0.63,-1.386 1.098,-1.98Zm-13.374,1.332c0.72,-1.098 1.566,-2.106 2.466,-3.078c0.18,-0.216 0.36,-0.396 0.63,-0.54c0.144,0.126 0.126,0.234 0.09,0.378c-0.09,0.288 -0.144,0.63 -0.306,0.882c-0.252,0.414 -0.522,0.81 -0.828,1.188c-0.72,0.9 -1.53,1.728 -2.394,2.52c-0.126,0.108 -0.234,0.18 -0.378,0.288c-0.018,0.018 -0.054,0 -0.144,0.036c0.216,-0.612 0.54,-1.152 0.864,-1.674Zm8.73,-0.252c0.09,0.54 -0.648,1.404 -1.404,1.656c0.144,-0.558 0.882,-1.44 1.404,-1.656Zm9.198,-0.342c0.09,0.54 -0.648,1.404 -1.404,1.656c0.144,-0.558 0.9,-1.422 1.404,-1.656Z" style="fill-rule:nonzero;"/></g><g><path d="M5.904,19.749c-0.052,0 -0.09,-0.019 -0.116,-0.058c-0.026,-0.038 -0.039,-0.083 -0.039,-0.135c0.007,-0.084 0.024,-0.134 0.053,-0.15c0.029,-0.016 0.086,-0.024 0.17,-0.024c0.167,0 0.286,-0.029 0.357,-0.087c0.071,-0.058 0.113,-0.126 0.126,-0.203c0.013,-0.078 0.019,-0.2 0.019,-0.368l0,-4.71c0,-0.168 -0.004,-0.29 -0.014,-0.368c-0.01,-0.077 -0.05,-0.145 -0.121,-0.203c-0.071,-0.058 -0.19,-0.087 -0.358,-0.087c-0.077,0 -0.135,-0.011 -0.174,-0.034c-0.039,-0.022 -0.058,-0.075 -0.058,-0.159c0,-0.039 0.013,-0.076 0.039,-0.111c0.026,-0.036 0.064,-0.057 0.116,-0.063c0.406,-0.058 0.754,-0.142 1.044,-0.252c0.091,-0.032 0.165,-0.051 0.223,-0.058l0.029,0c0.103,0 0.155,0.062 0.155,0.184l0,4.42c0.283,-0.058 0.515,-0.177 0.696,-0.358l0.812,-0.832c0.013,-0.019 0.052,-0.062 0.116,-0.13c0.065,-0.068 0.097,-0.124 0.097,-0.169c0,-0.097 -0.148,-0.136 -0.445,-0.116c-0.071,-0.013 -0.109,-0.071 -0.116,-0.175c0,-0.051 0.015,-0.096 0.044,-0.135c0.029,-0.039 0.066,-0.058 0.111,-0.058c0.29,0.019 0.645,0.029 1.064,0.029c0.09,0 0.232,-0.006 0.425,-0.019l0.223,-0.01c0.045,0 0.082,0.019 0.111,0.058c0.029,0.039 0.044,0.084 0.044,0.135c-0.007,0.078 -0.023,0.126 -0.049,0.146c-0.025,0.019 -0.064,0.029 -0.116,0.029c-0.238,0 -0.435,0.041 -0.59,0.125c-0.155,0.084 -0.335,0.232 -0.541,0.445l-0.813,0.832c0.168,0.226 0.522,0.638 1.064,1.238c0.245,0.271 0.371,0.413 0.377,0.426c0.232,0.245 0.405,0.409 0.518,0.493c0.113,0.084 0.253,0.132 0.42,0.145c0.013,0 0.041,0.001 0.083,0.005c0.042,0.003 0.074,0.017 0.096,0.043c0.023,0.026 0.034,0.068 0.034,0.126c0,0.129 -0.051,0.193 -0.155,0.193c-0.058,0 -0.154,-0.004 -0.29,-0.014c-0.135,-0.01 -0.467,-0.015 -0.996,-0.015c-0.193,-0.2 -0.641,-0.709 -1.344,-1.528c-0.219,-0.258 -0.323,-0.38 -0.31,-0.367c-0.187,-0.2 -0.377,-0.29 -0.57,-0.271l0,1.17c0,0.168 0.004,0.29 0.014,0.368c0.01,0.077 0.05,0.145 0.121,0.203c0.071,0.058 0.19,0.087 0.358,0.087l0.058,0c0.058,0 0.1,0.01 0.126,0.029c0.025,0.019 0.042,0.068 0.048,0.145c0,0.052 -0.015,0.097 -0.044,0.135c-0.029,0.039 -0.066,0.058 -0.111,0.058c-0.374,-0.019 -0.712,-0.029 -1.015,-0.029c-0.29,0 -0.626,0.01 -1.006,0.029Z" style="fill-rule:nonzero;"/><path d="M13.332,19.836c-0.439,0 -0.787,-0.132 -1.045,-0.396c-0.258,-0.264 -0.387,-0.613 -0.387,-1.045l0,-1.789c0,-0.168 -0.004,-0.29 -0.014,-0.367c-0.01,-0.078 -0.05,-0.146 -0.121,-0.204c-0.071,-0.058 -0.19,-0.087 -0.358,-0.087c-0.077,0 -0.135,-0.011 -0.174,-0.033c-0.039,-0.023 -0.058,-0.076 -0.058,-0.16c0,-0.039 0.013,-0.076 0.039,-0.111c0.025,-0.036 0.064,-0.057 0.116,-0.063c0.406,-0.058 0.754,-0.142 1.044,-0.252c0.091,-0.032 0.165,-0.051 0.223,-0.058l0.029,0c0.103,0 0.155,0.062 0.155,0.184l0,2.931c0,0.296 0.093,0.524 0.28,0.682c0.187,0.158 0.403,0.236 0.648,0.236c0.303,0 0.561,-0.074 0.774,-0.222c0.213,-0.148 0.354,-0.297 0.425,-0.445l0,-2.031c0,-0.168 -0.004,-0.29 -0.014,-0.367c-0.01,-0.078 -0.05,-0.146 -0.121,-0.204c-0.071,-0.058 -0.19,-0.087 -0.358,-0.087c-0.077,0 -0.135,-0.011 -0.174,-0.033c-0.039,-0.023 -0.058,-0.076 -0.058,-0.16c0,-0.039 0.013,-0.076 0.039,-0.111c0.025,-0.036 0.064,-0.057 0.116,-0.063c0.406,-0.058 0.754,-0.142 1.044,-0.252c0.091,-0.032 0.165,-0.051 0.223,-0.058l0.029,0c0.103,0 0.154,0.062 0.154,0.184l0,3.347c0,0.38 0.255,0.57 0.765,0.57c0.109,0 0.164,0.061 0.164,0.184c0,0.09 -0.055,0.145 -0.164,0.164l-1.558,0.107c-0.045,0 -0.071,-0.015 -0.077,-0.044c-0.006,-0.029 -0.01,-0.079 -0.01,-0.15l0,-0.541l-0.019,0c-0.187,0.174 -0.339,0.308 -0.455,0.401c-0.116,0.094 -0.266,0.174 -0.449,0.242c-0.184,0.068 -0.402,0.101 -0.653,0.101Z" style="fill-rule:nonzero;"/><path d="M17.249,19.749c-0.045,0 -0.082,-0.019 -0.111,-0.058c-0.029,-0.038 -0.044,-0.083 -0.044,-0.135c0.007,-0.084 0.026,-0.134 0.058,-0.15c0.032,-0.016 0.09,-0.024 0.174,-0.024c0.168,0 0.287,-0.029 0.358,-0.087c0.071,-0.058 0.111,-0.126 0.121,-0.203c0.01,-0.078 0.015,-0.2 0.015,-0.368l0,-2.215c0,-0.167 -0.005,-0.29 -0.015,-0.367c-0.01,-0.078 -0.05,-0.145 -0.121,-0.203c-0.071,-0.058 -0.19,-0.087 -0.358,-0.087c-0.077,0 -0.135,-0.012 -0.174,-0.034c-0.038,-0.023 -0.058,-0.076 -0.058,-0.16c0,-0.038 0.013,-0.076 0.039,-0.111c0.026,-0.035 0.064,-0.056 0.116,-0.063c0.419,-0.064 0.764,-0.148 1.035,-0.251c0.109,-0.033 0.184,-0.052 0.222,-0.058l0.029,0c0.103,0 0.155,0.061 0.155,0.183l0,0.61l0.029,0c0.187,-0.174 0.339,-0.308 0.455,-0.402c0.116,-0.093 0.266,-0.174 0.449,-0.241c0.184,-0.068 0.402,-0.102 0.653,-0.102c0.439,0 0.787,0.132 1.045,0.397c0.258,0.264 0.387,0.612 0.387,1.044l0,2.06c0,0.168 0.006,0.29 0.019,0.368c0.013,0.077 0.055,0.145 0.126,0.203c0.071,0.058 0.19,0.087 0.358,0.087l0.058,0c0.051,0 0.09,0.01 0.116,0.029c0.025,0.019 0.042,0.068 0.048,0.145c0,0.052 -0.014,0.097 -0.043,0.135c-0.029,0.039 -0.067,0.058 -0.112,0.058c-0.374,-0.019 -0.712,-0.029 -1.015,-0.029c-0.29,0 -0.626,0.01 -1.006,0.029c-0.045,0 -0.082,-0.019 -0.111,-0.058c-0.029,-0.038 -0.044,-0.083 -0.044,-0.135c0.007,-0.084 0.024,-0.134 0.053,-0.15c0.029,-0.016 0.086,-0.024 0.17,-0.024c0.167,0 0.287,-0.029 0.357,-0.087c0.071,-0.058 0.113,-0.126 0.126,-0.203c0.013,-0.078 0.02,-0.2 0.02,-0.368l0,-2.05c0,-0.297 -0.094,-0.524 -0.281,-0.682c-0.187,-0.158 -0.403,-0.237 -0.648,-0.237c-0.297,0 -0.551,0.072 -0.764,0.218c-0.213,0.145 -0.358,0.295 -0.435,0.449l0,2.302c0,0.168 0.006,0.29 0.019,0.368c0.013,0.077 0.055,0.145 0.126,0.203c0.071,0.058 0.19,0.087 0.358,0.087l0.058,0c0.051,0 0.09,0.01 0.116,0.029c0.026,0.019 0.042,0.068 0.048,0.145c0,0.052 -0.013,0.097 -0.039,0.135c-0.025,0.039 -0.064,0.058 -0.116,0.058c-0.374,-0.019 -0.712,-0.029 -1.015,-0.029c-0.29,0 -0.626,0.01 -1.006,0.029Z" style="fill-rule:nonzero;"/><path d="M24.677,19.836c-0.516,0 -0.935,-0.09 -1.257,-0.27c-0.323,-0.181 -0.484,-0.436 -0.484,-0.764c0,-0.187 0.056,-0.339 0.169,-0.455c0.113,-0.116 0.26,-0.174 0.44,-0.174c0.103,0 0.195,0.029 0.276,0.087c0.081,0.058 0.121,0.103 0.121,0.135c0,0.007 -0.037,0.049 -0.111,0.126c-0.075,0.077 -0.112,0.187 -0.112,0.329c0,0.193 0.089,0.346 0.266,0.459c0.178,0.113 0.434,0.17 0.769,0.17c0.303,0 0.54,-0.067 0.711,-0.199c0.171,-0.132 0.256,-0.317 0.256,-0.556c0,-0.161 -0.048,-0.293 -0.145,-0.396c-0.096,-0.104 -0.217,-0.184 -0.362,-0.242c-0.145,-0.058 -0.347,-0.126 -0.605,-0.203c-0.316,-0.091 -0.574,-0.181 -0.774,-0.271c-0.199,-0.09 -0.37,-0.226 -0.512,-0.406c-0.142,-0.181 -0.213,-0.416 -0.213,-0.706c0,-0.271 0.084,-0.503 0.252,-0.697c0.167,-0.193 0.385,-0.338 0.652,-0.435c0.268,-0.097 0.55,-0.145 0.847,-0.145c0.38,0 0.711,0.081 0.991,0.242c0.281,0.161 0.421,0.387 0.421,0.677c0,0.174 -0.053,0.322 -0.16,0.445c-0.106,0.122 -0.246,0.183 -0.421,0.183c-0.103,0 -0.195,-0.029 -0.275,-0.087c-0.081,-0.058 -0.121,-0.103 -0.121,-0.135c0,-0.006 0.026,-0.032 0.077,-0.077c0.052,-0.045 0.099,-0.099 0.141,-0.16c0.041,-0.061 0.062,-0.134 0.062,-0.218c-0.012,-0.174 -0.1,-0.309 -0.261,-0.406c-0.161,-0.097 -0.351,-0.145 -0.57,-0.145c-0.245,0 -0.46,0.057 -0.644,0.169c-0.183,0.113 -0.275,0.27 -0.275,0.469c0,0.181 0.038,0.324 0.116,0.431c0.077,0.106 0.193,0.192 0.348,0.256c0.155,0.065 0.4,0.152 0.735,0.261c0.342,0.11 0.609,0.211 0.803,0.305c0.193,0.093 0.346,0.219 0.459,0.377c0.113,0.158 0.17,0.366 0.17,0.624c0,0.264 -0.078,0.505 -0.233,0.721c-0.154,0.216 -0.367,0.383 -0.638,0.503c-0.271,0.119 -0.574,0.178 -0.909,0.178Z" style="fill-rule:nonzero;"/><path d="M28.942,19.885c-0.316,0 -0.587,-0.116 -0.812,-0.348c-0.226,-0.233 -0.339,-0.565 -0.339,-0.997l0,-2.843l-0.561,0.019c-0.038,0 -0.071,-0.018 -0.096,-0.053c-0.026,-0.035 -0.039,-0.076 -0.039,-0.121c0,-0.058 0.011,-0.108 0.034,-0.15c0.022,-0.042 0.056,-0.066 0.101,-0.072c0.226,-0.045 0.402,-0.118 0.527,-0.218c0.126,-0.1 0.218,-0.209 0.276,-0.329c0.058,-0.119 0.129,-0.301 0.213,-0.546c0.032,-0.084 0.103,-0.126 0.213,-0.126c0.045,0 0.09,0.011 0.135,0.034c0.045,0.022 0.068,0.056 0.068,0.101l-0.068,1.103l1.132,-0.068l0.019,0c0.084,0 0.126,0.062 0.126,0.184c0,0.071 -0.012,0.137 -0.034,0.198c-0.023,0.062 -0.05,0.092 -0.082,0.092l-1.084,-0.029l0,2.94c0,0.213 0.044,0.391 0.131,0.532c0.087,0.142 0.23,0.213 0.43,0.213c0.2,0 0.378,-0.035 0.532,-0.106c0.084,-0.032 0.136,-0.049 0.155,-0.049c0.045,0 0.081,0.018 0.106,0.054c0.026,0.035 0.052,0.082 0.078,0.14c0.006,0.013 0.01,0.029 0.01,0.048c0,0.026 -0.02,0.055 -0.059,0.087c-0.187,0.123 -0.362,0.205 -0.527,0.247c-0.164,0.042 -0.359,0.063 -0.585,0.063Z" style="fill-rule:nonzero;"/></g></g></svg>